{
  "asset": {
    "version": "2.0",
    "generator": "forgeax hello-gltf-instancing fork (POSITION + INDICES + EXT_mesh_gpu_instancing N=4)"
  },
  "extensionsUsed": ["EXT_mesh_gpu_instancing"],
  "scene": 0,
  "scenes": [{ "name": "SceneFoo", "nodes": [0, 1] }],
  "nodes": [
    {
      "name": "InstancedBox",
      "mesh": 0,
      "translation": [0, 0, 0],
      "extensions": {
        "EXT_mesh_gpu_instancing": {
          "attributes": { "TRANSLATION": 2 }
        }
      }
    },
    {
      "name": "MainCamera",
      "camera": 0,
      "translation": [0, 0, 5]
    }
  ],
  "cameras": [
    {
      "name": "MainCamera",
      "type": "perspective",
      "perspective": {
        "yfov": 0.7853981633974483,
        "aspectRatio": 1.7777777777777777,
        "znear": 0.1,
        "zfar": 100
      }
    }
  ],
  "meshes": [
    {
      "name": "MeshFoo",
      "primitives": [
        {
          "attributes": { "POSITION": 0 },
          "indices": 1,
          "material": 0
        }
      ]
    }
  ],
  "materials": [
    {
      "name": "MatFoo",
      "pbrMetallicRoughness": {
        "baseColorFactor": [0.7, 0.45, 0.2, 1.0]
      }
    }
  ],
  "accessors": [
    {
      "bufferView": 0,
      "componentType": 5126,
      "count": 24,
      "type": "VEC3",
      "min": [-0.5, -0.5, -0.5],
      "max": [0.5, 0.5, 0.5]
    },
    {
      "bufferView": 1,
      "componentType": 5123,
      "count": 36,
      "type": "SCALAR"
    },
    {
      "bufferView": 2,
      "componentType": 5126,
      "count": 4,
      "type": "VEC3"
    }
  ],
  "bufferViews": [
    { "buffer": 0, "byteOffset": 0, "byteLength": 288 },
    { "buffer": 0, "byteOffset": 288, "byteLength": 72 },
    { "buffer": 0, "byteOffset": 360, "byteLength": 48 }
  ],
  "buffers": [
    {
      "byteLength": 408,
      "uri": "data:application/octet-stream;base64,"
    }
  ]
}
