{
  "asset": {
    "version": "2.0",
    "generator": "ForgeaX deterministic diffuse reconstruction room; Engine unit box"
  },
  "scene": 0,
  "scenes": [
    {
      "name": "diffuse-validation-room",
      "nodes": [
        0,
        1,
        2,
        3,
        4,
        5,
        6,
        7
      ]
    }
  ],
  "nodes": [
    {
      "name": "floor",
      "mesh": 0,
      "translation": [
        0,
        -0.05,
        -1
      ],
      "scale": [
        6,
        0.1,
        6
      ]
    },
    {
      "name": "ceiling",
      "mesh": 0,
      "translation": [
        0,
        3.05,
        -1
      ],
      "scale": [
        6,
        0.1,
        6
      ]
    },
    {
      "name": "back",
      "mesh": 0,
      "translation": [
        0,
        1.5,
        -4.05
      ],
      "scale": [
        6,
        3,
        0.1
      ]
    },
    {
      "name": "red-wall",
      "mesh": 1,
      "translation": [
        -3.05,
        1.5,
        -1
      ],
      "scale": [
        0.1,
        3,
        6
      ]
    },
    {
      "name": "green-wall",
      "mesh": 2,
      "translation": [
        3.05,
        1.5,
        -1
      ],
      "scale": [
        0.1,
        3,
        6
      ]
    },
    {
      "name": "short-box",
      "mesh": 0,
      "translation": [
        -1.05,
        0.55,
        -0.5
      ],
      "scale": [
        1.1,
        1.1,
        1.1
      ]
    },
    {
      "name": "tall-box",
      "mesh": 0,
      "translation": [
        1.1,
        1.05,
        -2
      ],
      "scale": [
        1.2,
        2.1,
        1.2
      ]
    },
    {
      "name": "area-emitter",
      "mesh": 3,
      "translation": [
        0,
        2.97,
        -1
      ],
      "scale": [
        2,
        0.04,
        2
      ]
    }
  ],
  "meshes": [
    {
      "primitives": [
        {
          "attributes": {
            "POSITION": 0,
            "NORMAL": 1,
            "TEXCOORD_0": 2
          },
          "indices": 3,
          "material": 0
        }
      ]
    },
    {
      "primitives": [
        {
          "attributes": {
            "POSITION": 0,
            "NORMAL": 1,
            "TEXCOORD_0": 2
          },
          "indices": 3,
          "material": 1
        }
      ]
    },
    {
      "primitives": [
        {
          "attributes": {
            "POSITION": 0,
            "NORMAL": 1,
            "TEXCOORD_0": 2
          },
          "indices": 3,
          "material": 2
        }
      ]
    },
    {
      "primitives": [
        {
          "attributes": {
            "POSITION": 0,
            "NORMAL": 1,
            "TEXCOORD_0": 2
          },
          "indices": 3,
          "material": 3
        }
      ]
    }
  ],
  "materials": [
    {
      "name": "matte-white",
      "pbrMetallicRoughness": {
        "baseColorFactor": [
          0.75,
          0.75,
          0.75,
          1
        ],
        "metallicFactor": 0,
        "roughnessFactor": 1
      }
    },
    {
      "name": "matte-red",
      "pbrMetallicRoughness": {
        "baseColorFactor": [
          0.65,
          0.04,
          0.025,
          1
        ],
        "metallicFactor": 0,
        "roughnessFactor": 1
      }
    },
    {
      "name": "matte-green",
      "pbrMetallicRoughness": {
        "baseColorFactor": [
          0.04,
          0.55,
          0.07,
          1
        ],
        "metallicFactor": 0,
        "roughnessFactor": 1
      }
    },
    {
      "name": "ceiling-emitter",
      "pbrMetallicRoughness": {
        "baseColorFactor": [
          0,
          0,
          0,
          1
        ],
        "metallicFactor": 0,
        "roughnessFactor": 1
      },
      "emissiveFactor": [
        1,
        0.8,
        0.55
      ]
    }
  ],
  "buffers": [
    {
      "byteLength": 912,
      "uri": "data:application/octet-stream;base64,"
    }
  ],
  "bufferViews": [
    {
      "buffer": 0,
      "byteOffset": 0,
      "byteLength": 288,
      "target": 34962
    },
    {
      "buffer": 0,
      "byteOffset": 288,
      "byteLength": 288,
      "target": 34962
    },
    {
      "buffer": 0,
      "byteOffset": 576,
      "byteLength": 192,
      "target": 34962
    },
    {
      "buffer": 0,
      "byteOffset": 768,
      "byteLength": 144,
      "target": 34963
    }
  ],
  "accessors": [
    {
      "bufferView": 0,
      "componentType": 5126,
      "count": 24,
      "type": "VEC3",
      "min": [
        -0.5,
        -0.5,
        -0.5
      ],
      "max": [
        0.5,
        0.5,
        0.5
      ]
    },
    {
      "bufferView": 1,
      "componentType": 5126,
      "count": 24,
      "type": "VEC3"
    },
    {
      "bufferView": 2,
      "componentType": 5126,
      "count": 24,
      "type": "VEC2"
    },
    {
      "bufferView": 3,
      "componentType": 5125,
      "count": 36,
      "type": "SCALAR"
    }
  ]
}
